<svg xmlns="http://www.w3.org/2000/svg" viewBox="0 0 800 800">
  <defs>
    <linearGradient id="bg" x1="0" y1="0" x2="1" y2="1">
      <stop offset="0%" stop-color="#fff4f8"/>
      <stop offset="100%" stop-color="#edf4ff"/>
    </linearGradient>
    <linearGradient id="bottle" x1="0" y1="0" x2="0" y2="1">
      <stop offset="0%" stop-color="#ea4a4a"/>
      <stop offset="100%" stop-color="#b91f30"/>
    </linearGradient>
  </defs>
  <rect width="800" height="800" rx="42" fill="url(#bg)"/>
  <rect x="182" y="120" width="436" height="560" rx="42" fill="#fff" stroke="#f0d5e2" stroke-width="6"/>
  <rect x="246" y="162" width="308" height="82" rx="20" fill="#2f6fbe"/>
  <text x="400" y="214" text-anchor="middle" font-family="Calibri, Arial, sans-serif" font-size="44" font-weight="700" fill="#fff">KUHMASTER</text>
  <ellipse cx="400" cy="620" rx="150" ry="30" fill="#d7dfea"/>
  <rect x="332" y="272" width="136" height="268" rx="34" fill="url(#bottle)"/>
  <rect x="350" y="232" width="100" height="54" rx="16" fill="#2f6fbe"/>
  <rect x="344" y="362" width="112" height="90" rx="20" fill="#fff5de"/>
  <text x="400" y="402" text-anchor="middle" font-family="Calibri, Arial, sans-serif" font-size="24" font-weight="700" fill="#aa2336">KETCHUP</text>
  <circle cx="400" cy="494" r="40" fill="#ef473f"/>
  <path d="M399 450 C444 470 458 520 428 554 C409 576 389 576 370 554 C340 520 354 470 399 450 Z" fill="#ef473f"/>
  <path d="M399 447 C403 434 419 431 427 438 C418 445 410 449 399 452 C388 449 381 445 372 438 C380 431 395 434 399 447 Z" fill="#3a9a42"/>
  <text x="400" y="724" text-anchor="middle" font-family="Calibri, Arial, sans-serif" font-size="34" font-weight="700" fill="#183153">Кухмастер кетчуп томат 350гр</text>
</svg>
